<mxfile host="app.diagrams.net" modified="2020-11-12T14:16:53.725Z" agent="5.0 (Windows NT 10.0; Win64; x64) AppleWebKit/537.36 (KHTML, like Gecko) Chrome/86.0.4240.183 Safari/537.36" etag="BAOLWpkr1ZP03vYk9RcE" version="13.9.7" type="github">
  <diagram id="inM0I84hG28km-u3SPWE" name="Page-1">
    <mxGraphModel dx="868" dy="450" grid="1" gridSize="10" guides="1" tooltips="1" connect="1" arrows="1" fold="1" page="1" pageScale="1" pageWidth="827" pageHeight="1169" math="0" shadow="0">
      <root>
        <mxCell id="0" />
        <mxCell id="1" parent="0" />
        <mxCell id="n9CHOReNtIIi7ofPtesl-1" value="Passengers" style="swimlane;fontStyle=0;childLayout=stackLayout;horizontal=1;startSize=26;horizontalStack=0;resizeParent=1;resizeParentMax=0;resizeLast=0;collapsible=1;marginBottom=0;align=center;fontSize=14;" vertex="1" parent="1">
          <mxGeometry x="60" y="20" width="160" height="116" as="geometry" />
        </mxCell>
        <mxCell id="n9CHOReNtIIi7ofPtesl-2" value="Name" style="text;strokeColor=none;fillColor=none;spacingLeft=4;spacingRight=4;overflow=hidden;rotatable=0;points=[[0,0.5],[1,0.5]];portConstraint=eastwest;fontSize=12;" vertex="1" parent="n9CHOReNtIIi7ofPtesl-1">
          <mxGeometry y="26" width="160" height="30" as="geometry" />
        </mxCell>
        <mxCell id="n9CHOReNtIIi7ofPtesl-3" value="Item 2" style="text;strokeColor=none;fillColor=none;spacingLeft=4;spacingRight=4;overflow=hidden;rotatable=0;points=[[0,0.5],[1,0.5]];portConstraint=eastwest;fontSize=12;" vertex="1" parent="n9CHOReNtIIi7ofPtesl-1">
          <mxGeometry y="56" width="160" height="30" as="geometry" />
        </mxCell>
        <mxCell id="n9CHOReNtIIi7ofPtesl-4" value="Item 3" style="text;strokeColor=none;fillColor=none;spacingLeft=4;spacingRight=4;overflow=hidden;rotatable=0;points=[[0,0.5],[1,0.5]];portConstraint=eastwest;fontSize=12;" vertex="1" parent="n9CHOReNtIIi7ofPtesl-1">
          <mxGeometry y="86" width="160" height="30" as="geometry" />
        </mxCell>
        <mxCell id="n9CHOReNtIIi7ofPtesl-5" value="Flight" style="swimlane;fontStyle=0;childLayout=stackLayout;horizontal=1;startSize=26;horizontalStack=0;resizeParent=1;resizeParentMax=0;resizeLast=0;collapsible=1;marginBottom=0;align=center;fontSize=14;" vertex="1" parent="1">
          <mxGeometry x="290" y="20" width="160" height="116" as="geometry" />
        </mxCell>
        <mxCell id="n9CHOReNtIIi7ofPtesl-6" value="flightID" style="text;strokeColor=none;fillColor=none;spacingLeft=4;spacingRight=4;overflow=hidden;rotatable=0;points=[[0,0.5],[1,0.5]];portConstraint=eastwest;fontSize=12;" vertex="1" parent="n9CHOReNtIIi7ofPtesl-5">
          <mxGeometry y="26" width="160" height="30" as="geometry" />
        </mxCell>
        <mxCell id="n9CHOReNtIIi7ofPtesl-7" value="Item 2" style="text;strokeColor=none;fillColor=none;spacingLeft=4;spacingRight=4;overflow=hidden;rotatable=0;points=[[0,0.5],[1,0.5]];portConstraint=eastwest;fontSize=12;" vertex="1" parent="n9CHOReNtIIi7ofPtesl-5">
          <mxGeometry y="56" width="160" height="30" as="geometry" />
        </mxCell>
        <mxCell id="n9CHOReNtIIi7ofPtesl-8" value="Item 3" style="text;strokeColor=none;fillColor=none;spacingLeft=4;spacingRight=4;overflow=hidden;rotatable=0;points=[[0,0.5],[1,0.5]];portConstraint=eastwest;fontSize=12;" vertex="1" parent="n9CHOReNtIIi7ofPtesl-5">
          <mxGeometry y="86" width="160" height="30" as="geometry" />
        </mxCell>
        <mxCell id="n9CHOReNtIIi7ofPtesl-9" value="Airport" style="swimlane;fontStyle=0;childLayout=stackLayout;horizontal=1;startSize=26;horizontalStack=0;resizeParent=1;resizeParentMax=0;resizeLast=0;collapsible=1;marginBottom=0;align=center;fontSize=14;" vertex="1" parent="1">
          <mxGeometry x="510" y="20" width="160" height="116" as="geometry" />
        </mxCell>
        <mxCell id="n9CHOReNtIIi7ofPtesl-10" value="Item 1" style="text;strokeColor=none;fillColor=none;spacingLeft=4;spacingRight=4;overflow=hidden;rotatable=0;points=[[0,0.5],[1,0.5]];portConstraint=eastwest;fontSize=12;" vertex="1" parent="n9CHOReNtIIi7ofPtesl-9">
          <mxGeometry y="26" width="160" height="30" as="geometry" />
        </mxCell>
        <mxCell id="n9CHOReNtIIi7ofPtesl-11" value="Item 2" style="text;strokeColor=none;fillColor=none;spacingLeft=4;spacingRight=4;overflow=hidden;rotatable=0;points=[[0,0.5],[1,0.5]];portConstraint=eastwest;fontSize=12;" vertex="1" parent="n9CHOReNtIIi7ofPtesl-9">
          <mxGeometry y="56" width="160" height="30" as="geometry" />
        </mxCell>
        <mxCell id="n9CHOReNtIIi7ofPtesl-12" value="Item 3" style="text;strokeColor=none;fillColor=none;spacingLeft=4;spacingRight=4;overflow=hidden;rotatable=0;points=[[0,0.5],[1,0.5]];portConstraint=eastwest;fontSize=12;" vertex="1" parent="n9CHOReNtIIi7ofPtesl-9">
          <mxGeometry y="86" width="160" height="30" as="geometry" />
        </mxCell>
        <mxCell id="n9CHOReNtIIi7ofPtesl-13" value="Tickets" style="swimlane;fontStyle=0;childLayout=stackLayout;horizontal=1;startSize=26;horizontalStack=0;resizeParent=1;resizeParentMax=0;resizeLast=0;collapsible=1;marginBottom=0;align=center;fontSize=14;" vertex="1" parent="1">
          <mxGeometry x="60" y="190" width="160" height="116" as="geometry" />
        </mxCell>
        <mxCell id="n9CHOReNtIIi7ofPtesl-14" value="Item 1" style="text;strokeColor=none;fillColor=none;spacingLeft=4;spacingRight=4;overflow=hidden;rotatable=0;points=[[0,0.5],[1,0.5]];portConstraint=eastwest;fontSize=12;" vertex="1" parent="n9CHOReNtIIi7ofPtesl-13">
          <mxGeometry y="26" width="160" height="30" as="geometry" />
        </mxCell>
        <mxCell id="n9CHOReNtIIi7ofPtesl-15" value="Item 2" style="text;strokeColor=none;fillColor=none;spacingLeft=4;spacingRight=4;overflow=hidden;rotatable=0;points=[[0,0.5],[1,0.5]];portConstraint=eastwest;fontSize=12;" vertex="1" parent="n9CHOReNtIIi7ofPtesl-13">
          <mxGeometry y="56" width="160" height="30" as="geometry" />
        </mxCell>
        <mxCell id="n9CHOReNtIIi7ofPtesl-16" value="Item 3" style="text;strokeColor=none;fillColor=none;spacingLeft=4;spacingRight=4;overflow=hidden;rotatable=0;points=[[0,0.5],[1,0.5]];portConstraint=eastwest;fontSize=12;" vertex="1" parent="n9CHOReNtIIi7ofPtesl-13">
          <mxGeometry y="86" width="160" height="30" as="geometry" />
        </mxCell>
        <mxCell id="n9CHOReNtIIi7ofPtesl-17" value="Booking" style="swimlane;fontStyle=0;childLayout=stackLayout;horizontal=1;startSize=26;horizontalStack=0;resizeParent=1;resizeParentMax=0;resizeLast=0;collapsible=1;marginBottom=0;align=center;fontSize=14;" vertex="1" parent="1">
          <mxGeometry x="300" y="190" width="160" height="116" as="geometry" />
        </mxCell>
        <mxCell id="n9CHOReNtIIi7ofPtesl-18" value="Item 1" style="text;strokeColor=none;fillColor=none;spacingLeft=4;spacingRight=4;overflow=hidden;rotatable=0;points=[[0,0.5],[1,0.5]];portConstraint=eastwest;fontSize=12;" vertex="1" parent="n9CHOReNtIIi7ofPtesl-17">
          <mxGeometry y="26" width="160" height="30" as="geometry" />
        </mxCell>
        <mxCell id="n9CHOReNtIIi7ofPtesl-19" value="Item 2" style="text;strokeColor=none;fillColor=none;spacingLeft=4;spacingRight=4;overflow=hidden;rotatable=0;points=[[0,0.5],[1,0.5]];portConstraint=eastwest;fontSize=12;" vertex="1" parent="n9CHOReNtIIi7ofPtesl-17">
          <mxGeometry y="56" width="160" height="30" as="geometry" />
        </mxCell>
        <mxCell id="n9CHOReNtIIi7ofPtesl-20" value="Item 3" style="text;strokeColor=none;fillColor=none;spacingLeft=4;spacingRight=4;overflow=hidden;rotatable=0;points=[[0,0.5],[1,0.5]];portConstraint=eastwest;fontSize=12;" vertex="1" parent="n9CHOReNtIIi7ofPtesl-17">
          <mxGeometry y="86" width="160" height="30" as="geometry" />
        </mxCell>
      </root>
    </mxGraphModel>
  </diagram>
</mxfile>
